<svg width="200" height="179" viewBox="0 0 200 179" fill="none" xmlns="http://www.w3.org/2000/svg">
<g clip-path="url(#clip0)">
<path d="M187.24 34.8467C194.386 45.274 192.805 58.7817 192.805 58.7817C192.805 58.7817 179.636 55.3836 172.49 44.9563C165.343 34.5291 166.924 21.0214 166.924 21.0214C166.924 21.0214 180.093 24.4195 187.24 34.8467Z" fill="#2F2E41"/>
<path d="M182.097 36.8378C182.934 49.4514 192.533 59.0852 192.533 59.0852C192.533 59.0852 200.777 48.2684 199.94 35.6548C199.104 23.0412 189.505 13.4073 189.505 13.4073C189.505 13.4073 181.261 24.2241 182.097 36.8378Z" fill="#F573C3"/>
<path d="M100.045 0.262667L197.075 49.0457C197.882 49.4513 198.551 50.086 198.998 50.8702C199.446 51.6543 199.652 52.5532 199.592 53.4541L193.954 136.958C193.929 137.333 193.811 137.695 193.612 138.013C193.412 138.331 193.137 138.595 192.811 138.781C192.485 138.966 192.118 139.069 191.742 139.078C191.367 139.087 190.995 139.003 190.66 138.834L91.4178 88.1856L96.5128 2.29829C96.5367 1.89484 96.6605 1.50366 96.8729 1.15987C97.0854 0.816078 97.38 0.530451 97.7302 0.328638C98.0803 0.126824 98.4751 0.0151452 98.8791 0.0036305C99.2831 -0.00788419 99.6836 0.0811259 100.045 0.262667V0.262667Z" fill="#D0CDE1"/>
<path d="M101.161 1.96429L195.808 49.5491C196.595 49.9447 197.248 50.5638 197.685 51.3287C198.121 52.0936 198.323 52.9704 198.263 53.8492L192.764 135.302C192.74 135.668 192.625 136.021 192.43 136.331C192.236 136.642 191.967 136.899 191.649 137.08C191.331 137.261 190.973 137.361 190.607 137.37C190.241 137.379 189.878 137.297 189.551 137.132L92.7464 87.7276L97.7163 3.94991C97.7396 3.55637 97.8603 3.1748 98.0676 2.83945C98.2749 2.50411 98.5622 2.2255 98.9038 2.02864C99.2453 1.83178 99.6304 1.72285 100.024 1.71161C100.419 1.70038 100.809 1.78721 101.161 1.96429V1.96429Z" fill="#3F3D56"/>
<path d="M105.309 8.28467L191.104 51.4189C191.817 51.7775 192.409 52.3387 192.805 53.0321C193.201 53.7254 193.383 54.5202 193.329 55.3168L188.345 129.152C188.322 129.483 188.218 129.803 188.042 130.084C187.865 130.366 187.622 130.599 187.334 130.763C187.045 130.927 186.721 131.018 186.389 131.026C186.057 131.034 185.728 130.96 185.432 130.81L97.6813 86.0266L102.186 10.0846C102.208 9.72785 102.317 9.38196 102.505 9.07798C102.693 8.774 102.953 8.52144 103.263 8.343C103.572 8.16455 103.922 8.06581 104.279 8.05562C104.636 8.04544 104.99 8.12415 105.309 8.28467V8.28467Z" fill="white"/>
<path d="M16.7824 129.275L113.936 178.203C114.84 178.658 115.839 178.894 116.851 178.892C117.863 178.891 118.86 178.652 119.763 178.195L191.635 141.711C192.478 140.868 192.36 139.619 192.091 138.682C191.96 138.228 191.782 137.789 191.559 137.372L181.765 132.221L99.42 91.1352L94.5002 88.5235C93.1978 87.8338 91.7474 87.4703 90.2736 87.4644C88.7999 87.4584 87.3466 87.8101 86.0387 88.4893L16.752 124.48C16.3112 124.708 15.942 125.054 15.6853 125.478C15.4286 125.903 15.2945 126.391 15.2976 126.887C15.3007 127.383 15.4411 127.869 15.7032 128.29C15.9652 128.712 16.3387 129.052 16.7824 129.275V129.275Z" fill="#D0CDE1"/>
<path opacity="0.1" d="M16.7824 129.275L113.936 178.203C114.84 178.658 115.839 178.894 116.851 178.892C117.863 178.891 118.86 178.652 119.763 178.195L191.635 141.711C192.478 140.868 192.36 139.619 192.091 138.682L120.434 175.927C119.559 176.382 118.59 176.623 117.604 176.631C116.619 176.64 115.646 176.415 114.764 175.976L15.3323 126.439C15.2388 127.005 15.3292 127.585 15.5902 128.096C15.8513 128.606 16.2691 129.019 16.7824 129.275V129.275Z" fill="black"/>
<path opacity="0.1" d="M108.997 143.935L77.5335 128.035C76.9001 127.715 76.1989 127.552 75.4892 127.56C74.7796 127.568 74.0823 127.747 73.4563 128.081L55.2042 137.833C54.9933 137.945 54.8174 138.114 54.6956 138.319C54.5739 138.525 54.511 138.761 54.5139 139C54.5167 139.239 54.5851 139.472 54.7117 139.675C54.8382 139.878 55.018 140.042 55.2315 140.15L87.3117 156.327C87.8444 156.596 88.435 156.729 89.0314 156.715C89.6279 156.702 90.2117 156.541 90.7315 156.249L109.056 145.925C109.235 145.824 109.383 145.676 109.484 145.498C109.584 145.319 109.634 145.117 109.628 144.912C109.622 144.707 109.56 144.507 109.449 144.335C109.338 144.163 109.181 144.024 108.997 143.935V143.935Z" fill="black"/>
<path opacity="0.1" d="M183.098 141.276L149.241 159.262C148.851 159.469 148.418 159.58 147.976 159.584C147.535 159.589 147.099 159.487 146.706 159.288L51.0437 110.911C50.7742 110.775 50.5479 110.566 50.3903 110.309C50.2326 110.051 50.1498 109.755 50.1511 109.452C50.1524 109.15 50.2377 108.855 50.3976 108.598C50.5575 108.342 50.7855 108.135 51.0562 108.001L84.119 91.6371C84.6173 91.3904 85.1661 91.2631 85.7221 91.2651C86.2781 91.267 86.826 91.3983 87.3225 91.6485L183.083 139.897C183.21 139.961 183.317 140.059 183.393 140.18C183.468 140.3 183.509 140.44 183.51 140.582C183.512 140.724 183.474 140.864 183.401 140.986C183.329 141.109 183.224 141.209 183.098 141.276Z" fill="black"/>
<path d="M129.084 51.5731L128.914 51.9127L160.043 67.4768L160.212 67.1372L129.084 51.5731Z" fill="#6C63FF"/>
<path d="M129.081 56.1377L128.909 56.4754L160.045 72.4026L160.218 72.0649L129.081 56.1377Z" fill="#6C63FF"/>
<path d="M134.781 64.8579L134.608 65.196L152.448 74.3114L152.62 73.9733L134.781 64.8579Z" fill="#6C63FF"/>
<path d="M37.3188 83.8633C37.3188 83.8633 29.728 80.5556 26.1626 84.0496C22.5972 87.5437 35.7086 86.3935 37.3188 83.8633Z" fill="#3F3D56"/>
<path d="M24.2114 68.1766C26.7624 63.8663 31.8092 63.6655 31.8092 63.6655C31.8092 63.6655 36.727 63.0366 39.8818 69.6012C42.8223 75.72 46.8806 81.6278 40.5352 83.0602L39.389 79.4928L38.6792 83.3257C37.7757 83.3907 36.8694 83.4062 35.9642 83.3721C29.1688 83.1527 22.6972 83.4363 22.9056 80.9978C23.1826 77.7562 21.7569 72.324 24.2114 68.1766Z" fill="#2F2E41"/>
<path d="M20.642 146.315C20.642 146.315 23.8623 152.296 25.9326 152.296C28.0028 152.296 27.7728 156.206 27.3127 157.126C26.8527 158.046 25.7025 160.116 27.5427 163.107C28.1855 164.151 28.0705 165.336 27.6487 166.436C26.4669 169.517 21.8696 168.584 22.0163 165.287C22.0179 165.25 22.0198 165.214 22.0221 165.177C22.2522 161.497 20.412 155.746 18.5718 154.366C16.7316 152.986 15.1214 149.305 15.1214 149.305L20.642 146.315Z" fill="#FFB8B8"/>
<path d="M42.7243 144.935C42.7243 144.935 39.504 150.915 37.4338 150.915C35.3635 150.915 35.5936 154.826 36.0536 155.746C36.5137 156.666 37.6638 158.736 35.8236 161.727C35.1808 162.771 35.2958 163.956 35.7176 165.056C36.8994 168.137 41.4967 167.203 41.3501 163.907C41.3484 163.87 41.3465 163.834 41.3442 163.797C41.1142 160.116 42.9543 154.366 44.7945 152.986C46.6347 151.606 48.2449 147.925 48.2449 147.925L42.7243 144.935Z" fill="#FFB8B8"/>
<path d="M40.1941 115.492L41.5742 118.482C41.5742 118.482 61.8164 125.153 59.9762 132.974C58.136 140.794 49.165 152.986 47.7849 152.526C46.4047 152.066 39.0439 150.685 38.8139 146.775C38.5839 142.865 44.1045 135.964 44.1045 135.964L36.5137 129.063L25.4678 128.833L16.0415 135.964C16.0415 135.964 25.9325 144.705 21.5621 148.155C17.1916 151.606 10.7509 153.906 9.8308 152.526C8.91071 151.145 -1.44041 130.673 0.16976 128.833C1.77993 126.993 18.1117 120.092 18.1117 120.092L22.4822 113.881L39.504 112.961L40.1941 115.492Z" fill="#2F2E41"/>
<path d="M36.0536 77.5376C36.0536 77.5376 34.9035 85.1284 37.2037 86.0485C39.504 86.9686 32.6033 90.879 32.6033 90.879H28.6928L26.1626 85.5884C26.1626 85.5884 28.4628 81.448 27.0827 77.5376C25.7025 73.6271 36.0536 77.5376 36.0536 77.5376Z" fill="#FFB8B8"/>
<path opacity="0.1" d="M36.0536 77.5376C36.0536 77.5376 34.9035 85.1284 37.2037 86.0485C39.504 86.9686 32.6033 90.879 32.6033 90.879H28.6928L26.1626 85.5884C26.1626 85.5884 28.4628 81.448 27.0827 77.5376C25.7025 73.6271 36.0536 77.5376 36.0536 77.5376Z" fill="black"/>
<path d="M37.6638 83.9783C37.6638 83.9783 35.1335 86.7386 34.6735 87.1986C34.2134 87.6587 32.1432 90.1889 27.7727 86.5086C23.4023 82.8282 22.9422 87.1986 22.9422 87.1986V114.802C22.9422 114.802 26.6226 113.191 29.6129 114.802C32.6033 116.412 38.8139 114.342 38.8139 114.342L39.9641 85.8185L37.6638 83.9783Z" fill="#D0CDE1"/>
<path d="M35.9742 83.9783C35.9742 83.9783 38.1239 83.0582 39.964 83.9783C41.8042 84.8984 48.2449 89.4988 47.7849 91.5691C47.3248 93.6393 41.3442 108.131 45.4846 115.032C49.6251 121.932 50.3152 123.773 50.3152 123.773L40.1941 118.482C40.1941 118.482 32.3732 113.651 33.0633 110.661C33.7534 107.671 35.9742 83.9783 35.9742 83.9783Z" fill="#3F3D56"/>
<path d="M26.8499 83.9783C26.8499 83.9783 22.0221 84.4383 21.7921 84.8984C21.5621 85.3584 14.5463 87.3136 15.0064 89.3839C15.4664 91.4541 21.7921 109.971 19.0318 113.421C16.2715 116.872 11.671 121.702 13.2812 122.162C14.8913 122.622 17.6517 121.472 20.4119 122.162C23.1722 122.852 29.6129 117.102 28.9229 110.891C28.2328 104.681 28.9174 85.5884 26.8499 83.9783Z" fill="#3F3D56"/>
<path d="M38.3539 127.913V130.213C38.3539 130.213 39.504 135.504 35.8236 135.274C32.1432 135.044 34.4435 128.833 34.4435 128.833L34.6735 126.763L38.3539 127.913Z" fill="#FFB8B8"/>
<path d="M28.0028 128.143C28.0028 128.143 30.533 133.434 28.0028 133.894C25.4725 134.354 23.6323 130.903 23.6323 129.983C23.6323 129.063 28.0028 128.143 28.0028 128.143Z" fill="#FFB8B8"/>
<path d="M24.6674 75.3523C24.9215 75.3523 25.1274 74.9404 25.1274 74.4322C25.1274 73.9241 24.9215 73.5121 24.6674 73.5121C24.4133 73.5121 24.2073 73.9241 24.2073 74.4322C24.2073 74.9404 24.4133 75.3523 24.6674 75.3523Z" fill="#FFB8B8"/>
<path d="M38.2389 75.3523C38.4929 75.3523 38.6989 74.9404 38.6989 74.4322C38.6989 73.9241 38.4929 73.5121 38.2389 73.5121C37.9848 73.5121 37.7788 73.9241 37.7788 74.4322C37.7788 74.9404 37.9848 75.3523 38.2389 75.3523Z" fill="#FFB8B8"/>
<path d="M20.642 86.9686C20.642 86.9686 14.8914 86.9686 15.1214 89.2688C15.3514 91.5691 22.9422 131.133 22.9422 131.133C22.9422 131.133 26.1626 128.143 28.9229 128.833L20.642 86.9686Z" fill="#3F3D56"/>
<path d="M42.9544 87.6587C42.9544 87.6587 48.705 88.8088 48.705 92.2592C48.705 95.7095 40.4241 128.833 39.274 128.833C38.1239 128.833 33.7534 128.143 33.7534 126.993C33.7534 125.843 42.9544 87.6587 42.9544 87.6587Z" fill="#3F3D56"/>
<path opacity="0.2" d="M41.6892 94.4444L36.5137 114.685C36.5137 114.685 38.9289 96.9747 41.6892 94.4444Z" fill="black"/>
<path opacity="0.2" d="M21.5582 91.6004L26.7926 118.063C26.7926 118.063 25.1196 93.1269 21.5582 91.6004Z" fill="black"/>
<path d="M31.4531 81.218C35.1373 81.218 38.1238 78.2314 38.1238 74.5473C38.1238 70.8631 35.1373 67.8765 31.4531 67.8765C27.769 67.8765 24.7824 70.8631 24.7824 74.5473C24.7824 78.2314 27.769 81.218 31.4531 81.218Z" fill="#FFB8B8"/>
<path d="M25.3392 67.761L30.3253 65.1495L37.2107 66.2177L38.6352 72.5096L35.0892 72.3735L34.0985 70.0618V72.3352L32.4621 72.2724L31.5123 68.592L30.9188 72.5096L25.1017 72.3911L25.3392 67.761Z" fill="#2F2E41"/>
<path d="M100.107 29.0338L97.3578 35.573L120.565 47.7548L128.384 24.8744" fill="#F2F2F2"/>
<path d="M120.03 43.7428L130.283 19.6192L106.719 8.02399L96.8228 31.561L120.03 43.7428Z" fill="#378EE4"/>
<path d="M106.162 17.2489L105.989 17.5871L123.829 26.7023L124.002 26.3642L106.162 17.2489Z" fill="white"/>
<path d="M104.825 20.4585L104.652 20.7966L122.491 29.9119L122.664 29.5738L104.825 20.4585Z" fill="white"/>
</g>
<defs>
<clipPath id="clip0">
<rect width="200" height="178.892" fill="white"/>
</clipPath>
</defs>
</svg>
