<svg width="200" height="150" viewBox="0 0 200 150" fill="none" xmlns="http://www.w3.org/2000/svg">
<g clip-path="url(#clip0)">
<path d="M17.1157 146.637C26.5684 146.637 34.2314 146.052 34.2314 145.331C34.2314 144.61 26.5684 144.026 17.1157 144.026C7.66296 144.026 0 144.61 0 145.331C0 146.052 7.66296 146.637 17.1157 146.637Z" fill="#E6E6E6"/>
<path d="M54.0367 149.082C63.4895 149.082 71.1524 148.497 71.1524 147.776C71.1524 147.055 63.4895 146.471 54.0367 146.471C44.584 146.471 36.921 147.055 36.921 147.776C36.921 148.497 44.584 149.082 54.0367 149.082Z" fill="#E6E6E6"/>
<path d="M184.183 0H97.8156C97.312 0.000613409 96.8292 0.200943 96.4731 0.55705C96.117 0.913156 95.9167 1.39597 95.9161 1.89957V146.52C95.9163 147.024 96.1165 147.507 96.4727 147.863C96.8289 148.22 97.3119 148.42 97.8156 148.42H184.183C184.635 148.42 185.073 148.259 185.416 147.965C185.76 147.671 185.987 147.264 186.057 146.817C186.075 146.719 186.083 146.62 186.082 146.52V1.89957C186.082 1.39596 185.881 0.913156 185.525 0.55705C185.169 0.200943 184.686 0.000612762 184.183 0V0ZM185.323 146.52C185.323 146.823 185.202 147.113 184.989 147.326C184.775 147.54 184.485 147.66 184.183 147.66H97.8156C97.5134 147.66 97.2235 147.54 97.0098 147.326C96.796 147.113 96.6759 146.823 96.6759 146.52V1.89957C96.6764 1.59743 96.7966 1.3078 97.0102 1.09415C97.2239 0.880508 97.5135 0.760282 97.8156 0.759829H184.183C184.485 0.760282 184.775 0.880508 184.988 1.09415C185.202 1.3078 185.322 1.59743 185.323 1.89957V146.52Z" fill="#E6E6E6"/>
<path d="M104.654 10.668C104.453 10.6682 104.26 10.7484 104.117 10.8908C103.975 11.0333 103.895 11.2264 103.894 11.4278V42.8341C103.895 43.0356 103.975 43.2287 104.117 43.3711C104.26 43.5136 104.453 43.5937 104.654 43.5939H177.344C177.546 43.5937 177.739 43.5136 177.881 43.3711C178.024 43.2287 178.104 43.0356 178.104 42.8341V11.4278C178.104 11.2264 178.024 11.0332 177.881 10.8908C177.739 10.7483 177.546 10.6682 177.344 10.668L104.654 10.668Z" fill="#E6E6E6"/>
<path d="M74.292 35.2412C74.0975 35.2414 73.9111 35.3188 73.7736 35.4563C73.636 35.5938 73.5587 35.7803 73.5585 35.9747V66.294C73.5587 66.4885 73.636 66.6749 73.7736 66.8124C73.9111 66.95 74.0975 67.0273 74.292 67.0275H144.466C144.661 67.0273 144.847 66.95 144.985 66.8124C145.122 66.6749 145.2 66.4885 145.2 66.294V35.9747C145.2 35.7803 145.122 35.5938 144.985 35.4563C144.847 35.3188 144.661 35.2414 144.466 35.2412H74.292Z" fill="url(#paint0_linear)"/>
<path d="M38.5735 105.665C38.6658 107.936 37.2153 109.949 35.8572 111.758C35.2378 112.605 29.4819 118.347 27.7435 120.857C27.3225 121.466 16.9869 133.396 16.4572 134.501C16.3326 134.763 16.2299 135.035 16.1502 135.314C15.8406 136.373 15.827 137.514 15.8542 138.644V139.434C15.9085 141.159 15.9873 142.892 16.3974 144.563C16.4572 144.807 16.5251 145.054 16.5604 145.301C16.4507 145.23 16.3471 145.149 16.2507 145.06L10.6334 140.89L10.283 140.629C9.92442 139.592 9.58488 138.543 9.20189 137.519C8.97371 136.911 9.21818 136.215 9.62019 135.707C10.0557 135.227 10.536 134.788 11.0544 134.398C11.4524 133.986 11.8074 133.535 12.1138 133.051C15.99 127.409 26.9069 107.164 27.7027 103.09C28.752 102.894 29.827 102.881 30.8809 103.049L36.4846 103.793C37.0904 103.875 37.7531 103.986 38.147 104.451C38.416 104.799 38.5655 105.225 38.5735 105.665V105.665Z" fill="#EFB7B9"/>
<path d="M62.4934 110.294C62.374 111.14 62.0748 111.952 61.616 112.673C61.0401 113.55 54.4259 130.563 52.3696 137.587C51.9921 138.877 52.1904 140.124 52.1496 140.556C52.117 140.915 52.0871 141.273 52.06 141.629C52.0219 142.072 51.9921 142.515 51.9595 142.955C51.8753 144.12 51.8019 145.345 52.2936 146.404C52.4864 146.823 52.7771 147.184 52.9047 147.602C52.7131 147.504 52.5358 147.379 52.3778 147.233L46.7604 143.063C46.3024 141.765 45.9491 140.433 45.7038 139.078C45.5625 138.31 45.4946 137.427 45.9754 136.837C46.003 136.801 46.033 136.767 46.065 136.734C46.2218 136.587 46.3972 136.461 46.5866 136.359C46.7603 136.264 46.9273 136.157 47.0864 136.039C47.2057 135.945 47.3134 135.838 47.4069 135.718C47.8687 135.148 48.0344 134.347 48.1729 133.594C48.7162 130.514 53.3176 111.614 53.2307 111.146C53.1356 110.687 50.5225 106.284 48.7298 105.306C50.5899 103.748 52.7116 102.532 54.9963 101.715C55.3989 101.528 55.8445 101.452 56.2866 101.495C56.5231 101.547 56.7491 101.639 56.9548 101.767C58.1853 102.457 59.1279 103.543 60.0297 104.63C61.3742 106.265 62.7188 108.188 62.4934 110.294Z" fill="#EFB7B9"/>
<path d="M60.0422 103.749C59.8682 105.392 55.2527 106.846 49.4163 107.75C47.909 107.984 44.2055 98.8612 42.5909 99.0153C40.6492 99.2007 40.7848 108.644 38.8645 108.694C32.3274 108.867 28.103 108.197 26.7373 106.259C25.9985 106.08 25.1076 105.656 25.1429 104.901C25.1673 104.469 25.5096 104.086 25.5069 103.662C25.5069 102.923 27.65 94.8342 28.9131 90.9961C29.2282 90.0426 29.4564 89.0647 29.8122 88.1222C31.3497 83.8738 32.0097 80.6143 34.8184 77.0776C35.2482 76.5814 35.6015 76.0238 35.8669 75.4234C36.108 74.7025 36.2336 73.948 36.2391 73.1878L36.3939 70.5286C40.558 70.333 44.6026 70.4118 48.6771 71.2919C48.8982 71.2853 49.1128 71.3669 49.2737 71.5186C49.4347 71.6703 49.5288 71.8797 49.5353 72.1008L49.5355 72.1067C49.693 73.0792 49.8035 74.0562 49.8668 75.0377C49.8688 75.2545 49.8998 75.4701 49.9592 75.6787C50.0661 75.9424 50.2147 76.1873 50.3992 76.404C52.757 79.4951 54.2021 83.1948 55.343 86.8998C56.4838 90.6049 57.3911 94.4132 58.8253 98.0368C59.3197 99.2863 59.9661 100.691 60.0965 102.03C60.6126 102.413 60.4985 103.279 60.0422 103.749Z" fill="#2F2E41"/>
<path d="M63.9999 59.2069C64.717 58.6011 65.4341 57.9927 66.0915 57.3245C67.019 56.3413 67.8759 55.2939 68.6557 54.1898C69.4869 53.0571 70.3126 51.8973 70.8287 50.588C71.4127 49.0886 71.592 47.3827 72.6079 46.1386C72.7228 45.977 72.8823 45.8524 73.067 45.7801C73.6455 45.5981 74.0774 46.3233 74.1888 46.9237C74.7321 49.8627 73.4364 52.7964 72.176 55.5072C71.7604 56.4009 71.3258 57.319 70.606 57.9954C70.211 58.333 69.7985 58.6494 69.37 58.9434C68.7337 59.4607 68.1479 60.0373 67.6207 60.6655C66.7153 61.6941 65.8542 62.7598 65.0375 63.8626C64.0243 65.2208 63.0736 66.6442 61.873 67.8421C60.6724 69.04 59.1702 70.0151 57.4888 70.2514C57.9696 70.1863 57.8121 67.364 57.7605 67.0082C57.6871 66.492 57.334 65.8836 57.3232 65.3784C57.3096 64.759 57.5622 64.6694 58.0729 64.2348L63.9999 59.2069Z" fill="#EFB7B9"/>
<path d="M43.8393 41.4313C43.8393 41.4313 42.2095 49.5802 40.3081 50.9384C38.4067 52.2966 50.6301 53.9264 50.6301 53.9264C50.6301 53.9264 50.9018 47.4072 54.1614 44.4192C57.4209 41.4313 43.8393 41.4313 43.8393 41.4313Z" fill="#EFB7B9"/>
<path d="M54.7916 73.7908C55.1946 73.917 55.6165 73.9722 56.0384 73.9538C57.4645 73.9383 58.87 73.611 60.1563 72.9949C60.2768 72.9483 60.3834 72.8716 60.466 72.7722C60.514 72.6682 60.5399 72.5554 60.5423 72.4408C60.5446 72.3263 60.5233 72.2125 60.4796 72.1067C59.7135 69.01 61.1912 65.4978 59.7244 62.6674C58.1299 63.1863 56.3806 63.754 54.7861 64.2592C54.5416 64.3585 54.2783 64.403 54.0147 64.3896C53.6989 64.324 53.4096 64.1661 53.1835 63.936C51.4559 62.442 50.3667 60.3613 49.3807 58.305C48.3946 56.2488 47.4276 54.1273 45.8739 52.4541C44.3202 50.7808 42.8669 49.8953 40.5961 50.1371C39.79 50.2473 39.05 50.6423 38.5099 51.2508C37.2278 52.6307 36.9725 54.7304 37.4234 56.5612C37.8743 58.392 38.9092 60.0136 39.9849 61.5592C41.3865 63.5747 42.8941 65.5604 44.8417 67.057C45.8953 67.8201 46.9888 68.5264 48.1176 69.1731" fill="#E6E6E6"/>
<path d="M50.2227 47.543C54.7233 47.543 58.3717 43.8946 58.3717 39.394C58.3717 34.8935 54.7233 31.2451 50.2227 31.2451C45.7221 31.2451 42.0737 34.8935 42.0737 39.394C42.0737 43.8946 45.7221 47.543 50.2227 47.543Z" fill="#EFB7B9"/>
<path d="M53.4822 62.8468C51.0325 65.7355 50.5147 69.4259 50.0135 73.0683C47.5525 72.2344 44.8253 73.6333 42.2774 73.1226C40.9978 72.6966 39.6439 72.5394 38.3007 72.6611C37.3582 72.5712 36.4237 71.979 35.5246 72.2805C34.0299 73.2274 35.4855 67.3626 35.3967 65.658C34.6133 36.9053 57.9346 50.8929 53.4822 62.8468Z" fill="#E6E6E6"/>
<path d="M67.2595 60.2934C67.9766 59.6877 68.6937 59.0792 69.351 58.411C70.2786 57.4279 71.1355 56.3804 71.9152 55.2764C72.7464 54.1437 73.5722 52.9838 74.0883 51.6745C74.6723 50.1751 74.8516 48.4693 75.8675 47.2252C75.9823 47.0635 76.1419 46.9389 76.3265 46.8666C76.9051 46.6846 77.337 47.4099 77.4484 48.0102C77.9916 50.9493 76.696 53.8829 75.4356 56.5938C75.02 57.4875 74.5854 58.4056 73.8655 59.0819C73.4706 59.4195 73.058 59.7359 72.6296 60.0299C71.9932 60.5472 71.4075 61.1239 70.8803 61.7521C69.9749 62.7807 69.1138 63.8464 68.2971 64.9492C67.2839 66.3073 66.3332 67.7307 65.1326 68.9286C63.932 70.1265 62.4298 71.1017 60.7484 71.338C61.2292 71.2728 61.0717 68.4505 61.0201 68.0947C60.9467 67.5786 60.5936 66.9701 60.5827 66.4649C60.5692 65.8456 60.8218 65.7559 61.3324 65.3213L67.2595 60.2934Z" fill="#EFB7B9"/>
<path opacity="0.1" d="M52.6674 63.1184L52.6484 63.1537C52.1785 64.0256 51.4749 64.759 50.9914 65.6283C50.4482 66.6116 50.1955 67.7334 49.9782 68.839C49.8279 69.5814 49.6894 70.3248 49.5626 71.0691C48.5872 70.5096 47.6441 69.8956 46.7377 69.2301C44.7901 67.7334 43.2825 65.7478 41.8809 63.7296C40.7944 62.184 39.7621 60.5623 39.3194 58.7342C38.8766 56.9061 39.1347 54.8037 40.4059 53.4238C40.9459 52.8148 41.6858 52.4188 42.4921 52.3074C44.7629 52.0657 46.1971 52.943 47.7509 54.6136C49.3046 56.2841 50.2662 58.4164 51.2576 60.4645C51.6977 61.3528 52.1486 62.2627 52.6674 63.1184Z" fill="black"/>
<path d="M43.8557 51.2236C43.0496 51.3338 42.3096 51.7289 41.7695 52.3373C40.4874 53.7172 40.2321 55.8169 40.683 57.6477C41.1339 59.4785 42.1688 61.1002 43.2445 62.6457C44.6461 64.6612 46.1537 66.6469 48.1013 68.1436C49.1549 68.9066 50.2484 69.613 51.3772 70.2596C53.2528 71.4149 55.0554 71.0551 56.7745 72.4327C57.1514 72.7739 57.5829 73.0494 58.0512 73.2476C58.4542 73.3738 58.8761 73.4289 59.298 73.4105C60.7241 73.395 62.1296 72.5245 63.4159 71.9084C63.5364 71.8618 63.643 71.7851 63.7256 71.6856C63.7736 71.5816 63.7996 71.4688 63.8019 71.3543C63.8042 71.2398 63.7829 71.126 63.7392 71.0201C62.9731 67.9235 64.4508 66.5844 62.984 63.754C61.3895 64.2728 59.6402 64.8405 58.0457 65.3457C57.8012 65.445 57.5379 65.4895 57.2743 65.4761C56.9585 65.4105 56.6692 65.2526 56.4431 65.0225C54.7155 63.5285 53.6263 61.4478 52.6402 59.3916C51.6542 57.3353 50.6872 55.2139 49.1335 53.5406C47.5797 51.8673 46.1265 50.9819 43.8557 51.2236Z" fill="#E6E6E6"/>
<path d="M55.2027 147.7C54.8396 148.069 54.3673 148.312 53.8557 148.392C53.3441 148.472 52.8202 148.386 52.3615 148.145C52.1698 148.047 51.9926 147.923 51.8345 147.776L46.2171 143.606L43.9898 141.952C43.7555 141.734 43.568 141.471 43.4387 141.178C43.3094 140.886 43.241 140.57 43.2377 140.25C43.2344 139.93 43.2962 139.613 43.4194 139.317C43.5427 139.022 43.7247 138.755 43.9545 138.532L45.4321 137.381L46.0433 136.903L46.8636 136.262L47.5807 135.702L52.1822 138.282L52.261 138.435L55.7433 145.149C55.906 145.582 55.9415 146.052 55.8457 146.504C55.7499 146.956 55.5268 147.371 55.2027 147.7V147.7Z" fill="#2F2E41"/>
<path d="M19.0757 145.527C18.7125 145.896 18.2402 146.139 17.7286 146.219C17.217 146.299 16.6931 146.213 16.2344 145.972C16.1611 145.934 16.0877 145.891 16.0171 145.845C15.9074 145.773 15.8038 145.692 15.7074 145.603L10.0901 141.433L9.73966 141.173L7.86269 139.779C7.62839 139.561 7.44088 139.298 7.31158 139.005C7.18229 138.713 7.1139 138.397 7.1106 138.077C7.1073 137.757 7.16914 137.44 7.29237 137.144C7.41559 136.849 7.59762 136.582 7.82738 136.359L9.30506 135.208L9.91623 134.73L10.7366 134.089L11.4537 133.529L11.5705 133.594L15.6069 135.857L16.0551 136.109L16.1339 136.262L19.6162 142.976C19.7789 143.409 19.8144 143.879 19.7186 144.331C19.6229 144.783 19.3998 145.198 19.0757 145.527V145.527Z" fill="#2F2E41"/>
<path d="M57.8953 32.4475C54.7399 28.8724 51.182 27.1625 46.9162 28.7325C40.072 26.4352 31.0751 42.2229 36.615 47.9485L45.997 48.7308L48.8698 43.5579L47.8533 48.916L55.3578 49.6651C51.5294 43.7126 52.7575 37.9909 57.8953 32.4475Z" fill="#2F2E41"/>
<path d="M93.2401 58.2548C97.1726 58.2548 100.361 55.0669 100.361 51.1344C100.361 47.2019 97.1726 44.014 93.2401 44.014C89.3077 44.014 86.1198 47.2019 86.1198 51.1344C86.1198 55.0669 89.3077 58.2548 93.2401 58.2548Z" fill="white"/>
<path d="M109.311 50.187C109.092 50.1905 108.884 50.2798 108.731 50.4356C108.578 50.5913 108.492 50.801 108.492 51.0195C108.492 51.238 108.578 51.4477 108.731 51.6034C108.884 51.7592 109.092 51.8484 109.311 51.852H131.792C132.013 51.8556 132.226 51.7714 132.385 51.6178C132.544 51.4643 132.635 51.254 132.638 51.0332C132.642 50.8124 132.558 50.5992 132.404 50.4405C132.251 50.2818 132.04 50.1906 131.82 50.187C131.811 50.1868 131.801 50.1868 131.792 50.187H109.311Z" fill="white"/>
<path d="M109.311 45.3635C109.092 45.3671 108.884 45.4564 108.731 45.6121C108.578 45.7678 108.492 45.9776 108.492 46.196C108.492 46.4145 108.578 46.6242 108.731 46.7799C108.884 46.9356 109.092 47.0249 109.311 47.0285H120.537C120.758 47.032 120.971 46.9477 121.13 46.7941C121.288 46.6406 121.379 46.4303 121.383 46.2097C121.387 45.989 121.302 45.7759 121.149 45.6172C120.996 45.4586 120.786 45.3673 120.565 45.3635C120.556 45.3633 120.547 45.3633 120.537 45.3635H109.311Z" fill="white"/>
<path d="M109.311 55.2402C109.092 55.2438 108.884 55.3331 108.731 55.4888C108.578 55.6445 108.492 55.8542 108.492 56.0727C108.492 56.2911 108.578 56.5009 108.731 56.6566C108.884 56.8123 109.092 56.9016 109.311 56.9052H131.792C131.902 56.9071 132.01 56.8874 132.112 56.8473C132.214 56.8071 132.307 56.7473 132.385 56.6713C132.464 56.5952 132.527 56.5044 132.57 56.4041C132.614 56.3037 132.637 56.1958 132.639 56.0864C132.641 55.977 132.621 55.8683 132.581 55.7666C132.541 55.6648 132.481 55.572 132.405 55.4934C132.329 55.4149 132.238 55.352 132.137 55.3086C132.037 55.2651 131.929 55.2419 131.82 55.2402C131.811 55.24 131.801 55.24 131.792 55.2402H109.311Z" fill="white"/>
<path d="M116.126 78.7993C117.105 78.7993 117.899 78.0056 117.899 77.0264C117.899 76.0472 117.105 75.2535 116.126 75.2535C115.147 75.2535 114.353 76.0472 114.353 77.0264C114.353 78.0056 115.147 78.7993 116.126 78.7993Z" fill="#E6E6E6"/>
<path d="M123.433 76.1084C123.192 76.1125 122.962 76.211 122.794 76.3827C122.625 76.5544 122.53 76.7856 122.53 77.0264C122.53 77.2672 122.625 77.4984 122.794 77.6701C122.962 77.8418 123.192 77.9403 123.433 77.9444H166.712C166.955 77.9474 167.189 77.854 167.363 77.6848C167.537 77.5155 167.637 77.2842 167.641 77.0414C167.645 76.7986 167.553 76.5641 167.384 76.3893C167.216 76.2144 166.985 76.1134 166.742 76.1084C166.732 76.1082 166.722 76.1082 166.712 76.1084H123.433Z" fill="#E6E6E6"/>
<path d="M116.126 87.4108C117.105 87.4108 117.899 86.617 117.899 85.6378C117.899 84.6586 117.105 83.8649 116.126 83.8649C115.147 83.8649 114.353 84.6586 114.353 85.6378C114.353 86.617 115.147 87.4108 116.126 87.4108Z" fill="#E6E6E6"/>
<path d="M123.433 84.7198C123.192 84.7238 122.962 84.8223 122.794 84.9941C122.625 85.1658 122.53 85.397 122.53 85.6378C122.53 85.8786 122.625 86.1098 122.794 86.2815C122.962 86.4532 123.192 86.5517 123.433 86.5558H166.712C166.955 86.5588 167.189 86.4655 167.363 86.2963C167.537 86.127 167.638 85.8957 167.642 85.6528C167.646 85.41 167.553 85.1754 167.385 85.0006C167.216 84.8257 166.985 84.7247 166.742 84.7198C166.732 84.7196 166.722 84.7196 166.712 84.7198H123.433Z" fill="#E6E6E6"/>
<path d="M116.126 96.0221C117.105 96.0221 117.899 95.2284 117.899 94.2492C117.899 93.27 117.105 92.4763 116.126 92.4763C115.147 92.4763 114.353 93.27 114.353 94.2492C114.353 95.2284 115.147 96.0221 116.126 96.0221Z" fill="#E6E6E6"/>
<path d="M123.433 93.3312C123.192 93.3353 122.962 93.4338 122.794 93.6055C122.625 93.7772 122.53 94.0084 122.53 94.2492C122.53 94.49 122.625 94.7212 122.794 94.8929C122.962 95.0647 123.192 95.1632 123.433 95.1672H166.712C166.955 95.1703 167.189 95.0769 167.363 94.9077C167.537 94.7385 167.638 94.5071 167.642 94.2642C167.646 94.0214 167.553 93.7868 167.385 93.612C167.216 93.4371 166.985 93.3362 166.742 93.3312C166.732 93.3311 166.722 93.3311 166.712 93.3312H123.433Z" fill="#E6E6E6"/>
<path d="M116.126 104.634C117.105 104.634 117.899 103.84 117.899 102.861C117.899 101.881 117.105 101.088 116.126 101.088C115.147 101.088 114.353 101.881 114.353 102.861C114.353 103.84 115.147 104.634 116.126 104.634Z" fill="#E6E6E6"/>
<path d="M123.433 101.943C123.192 101.947 122.962 102.045 122.794 102.217C122.625 102.389 122.53 102.62 122.53 102.861C122.53 103.101 122.625 103.333 122.794 103.504C122.962 103.676 123.192 103.775 123.433 103.779H166.712C166.833 103.781 166.953 103.76 167.066 103.716C167.178 103.672 167.281 103.606 167.368 103.522C167.455 103.438 167.525 103.338 167.573 103.227C167.621 103.116 167.647 102.997 167.649 102.876C167.651 102.755 167.629 102.635 167.585 102.522C167.54 102.41 167.474 102.308 167.389 102.221C167.305 102.134 167.205 102.065 167.094 102.017C166.982 101.969 166.863 101.944 166.742 101.943C166.732 101.942 166.722 101.942 166.712 101.943H123.433Z" fill="#E6E6E6"/>
<path d="M116.126 113.245C117.105 113.245 117.899 112.451 117.899 111.472C117.899 110.493 117.105 109.699 116.126 109.699C115.147 109.699 114.353 110.493 114.353 111.472C114.353 112.451 115.147 113.245 116.126 113.245Z" fill="#E6E6E6"/>
<path d="M123.433 110.554C123.192 110.558 122.962 110.657 122.794 110.828C122.625 111 122.53 111.231 122.53 111.472C122.53 111.713 122.625 111.944 122.794 112.116C122.962 112.287 123.192 112.386 123.433 112.39H166.712C166.955 112.393 167.189 112.3 167.363 112.13C167.537 111.961 167.637 111.73 167.641 111.487C167.645 111.244 167.553 111.01 167.384 110.835C167.216 110.66 166.985 110.559 166.742 110.554C166.732 110.554 166.722 110.554 166.712 110.554H123.433Z" fill="#E6E6E6"/>
<path d="M116.126 121.856C117.105 121.856 117.899 121.063 117.899 120.083C117.899 119.104 117.105 118.31 116.126 118.31C115.147 118.31 114.353 119.104 114.353 120.083C114.353 121.063 115.147 121.856 116.126 121.856Z" fill="#E6E6E6"/>
<path d="M123.433 119.165C123.192 119.169 122.962 119.268 122.794 119.44C122.625 119.611 122.53 119.843 122.53 120.083C122.53 120.324 122.625 120.555 122.794 120.727C122.962 120.899 123.192 120.997 123.433 121.001H166.712C166.955 121.004 167.189 120.911 167.363 120.742C167.537 120.573 167.637 120.341 167.641 120.098C167.645 119.856 167.553 119.621 167.384 119.446C167.216 119.271 166.985 119.17 166.742 119.165C166.732 119.165 166.722 119.165 166.712 119.165H123.433Z" fill="#E6E6E6"/>
<path d="M116.126 130.468C117.105 130.468 117.899 129.674 117.899 128.695C117.899 127.716 117.105 126.922 116.126 126.922C115.147 126.922 114.353 127.716 114.353 128.695C114.353 129.674 115.147 130.468 116.126 130.468Z" fill="#E6E6E6"/>
<path d="M123.433 127.777C123.192 127.781 122.962 127.879 122.794 128.051C122.625 128.223 122.53 128.454 122.53 128.695C122.53 128.936 122.625 129.167 122.794 129.339C122.962 129.51 123.192 129.609 123.433 129.613H166.712C166.955 129.616 167.189 129.523 167.363 129.353C167.537 129.184 167.638 128.953 167.642 128.71C167.646 128.467 167.553 128.232 167.385 128.058C167.216 127.883 166.985 127.782 166.742 127.777C166.732 127.777 166.722 127.777 166.712 127.777H123.433Z" fill="#E6E6E6"/>
<path d="M200 116.049C199.962 116.983 199.017 136.275 186.057 146.817C185.515 147.257 184.952 147.682 184.368 148.091L183.927 147.66H184.183C184.485 147.66 184.775 147.54 184.989 147.326C185.203 147.113 185.323 146.823 185.323 146.52V108.493C185.594 107.035 185.849 105.601 186.082 104.205C187.346 96.6199 187.931 90.212 186.984 87.55C187.394 88.5783 195.631 109.61 191.158 131.04C195.588 124.974 199.792 118.607 200 116.049Z" fill="#E6E6E6"/>
</g>
<defs>
<linearGradient id="paint0_linear" x1="74" y1="35" x2="151" y2="60" gradientUnits="userSpaceOnUse">
<stop stop-color="#F573C3"/>
<stop offset="1" stop-color="#378EE4"/>
</linearGradient>
<clipPath id="clip0">
<rect width="200" height="149.082" fill="white"/>
</clipPath>
</defs>
</svg>
