<svg width="200" height="80" viewBox="0 0 200 80" fill="none" xmlns="http://www.w3.org/2000/svg">
<g clip-path="url(#clip0)">
<path d="M167.826 12.5956H180.355V6.36603C180.355 6.31015 180.354 6.25547 180.353 6.19761C180.333 4.5491 179.664 2.97486 178.493 1.81515C177.321 0.655444 175.74 0.00341594 174.091 5.69412e-06C173.266 -0.00111512 172.449 0.163239 171.688 0.48335C170.927 0.803461 170.239 1.27283 169.662 1.86371C169.439 2.09024 169.233 2.33339 169.047 2.59108C168.249 3.68773 167.821 5.01 167.826 6.36603V12.5956Z" fill="#2F2E41"/>
<path d="M109.35 79.5414C112.156 79.5414 114.431 77.2664 114.431 74.4601C114.431 71.6538 112.156 69.3788 109.35 69.3788C106.543 69.3788 104.268 71.6538 104.268 74.4601C104.268 77.2664 106.543 79.5414 109.35 79.5414Z" fill="#F573C3"/>
<path d="M127.236 79.5414C130.042 79.5414 132.317 77.2664 132.317 74.4601C132.317 71.6538 130.042 69.3788 127.236 69.3788C124.429 69.3788 122.154 71.6538 122.154 74.4601C122.154 77.2664 124.429 79.5414 127.236 79.5414Z" fill="#F573C3"/>
<path d="M145.122 79.5414C147.928 79.5414 150.203 77.2664 150.203 74.4601C150.203 71.6538 147.928 69.3788 145.122 69.3788C142.316 69.3788 140.041 71.6538 140.041 74.4601C140.041 77.2664 142.316 79.5414 145.122 79.5414Z" fill="#F573C3"/>
<path d="M42.6777 67.4686H17.9216L12.7996 79.3487H3.55164L26.4582 28.6982H33.9277L56.9054 79.3487H47.7285L42.6777 67.4686ZM39.6187 60.3548L30.2996 38.6576L20.9805 60.3548H39.6187Z" fill="#378EE4"/>
<path d="M96.1025 43.4239V79.3487H87.3525V73.5864C86.2755 75.5643 84.6435 77.184 82.6575 78.2461C80.6178 79.3598 78.294 79.917 75.686 79.9177C72.5558 79.9177 69.7814 79.159 67.3627 77.6415C64.944 76.1242 63.0706 73.9663 61.7427 71.1678C60.4145 68.3701 59.7505 65.1214 59.7509 61.4218C59.7509 57.7228 60.4267 54.4386 61.7783 51.5692C63.13 48.7003 65.0152 46.4713 67.4338 44.8822C69.8526 43.2939 72.6033 42.4995 75.686 42.4991C78.2935 42.4991 80.6173 43.0563 82.6575 44.1708C84.6433 45.2331 86.2752 46.8528 87.3525 48.8305V43.4239H96.1025ZM84.9339 69.8873C86.5456 67.8489 87.3518 64.9796 87.3525 61.2797C87.3525 57.4858 86.5463 54.5691 84.9339 52.5295C83.321 50.491 81.0209 49.4714 78.0335 49.4706C75.0923 49.4706 72.804 50.5259 71.1686 52.6363C69.5324 54.747 68.7143 57.6755 68.7143 61.4218C68.7143 65.121 69.5324 67.9666 71.1686 69.9584C72.8047 71.9504 75.1167 72.9464 78.1045 72.9462C81.0445 72.9462 83.321 71.9266 84.9339 69.8873Z" fill="#F573C3"/>
<path d="M200 79.1349H0V79.5414H200V79.1349Z" fill="#3F3D56"/>
<path d="M182.849 37.3325C183.333 37.8432 184.073 44.1239 186.26 43.1695C188.027 41.1741 185.057 37.21 184.754 36.3685L182.849 37.3325Z" fill="#FFB8B8"/>
<path d="M180.089 29.227L185.466 36.4378L182.9 38.3933L179.111 33.0157L180.089 29.227Z" fill="#378EE4"/>
<path d="M171.656 30.327C171.656 30.327 167.99 37.2933 170.923 41.3264C173.856 45.3595 179.967 54.159 179.967 54.159C180.854 61.7102 182.544 68.9052 187.195 75L190.274 74.1559L185.833 52.448C185.833 52.448 183.389 39.7376 180.578 36.56L180.081 30.4878L171.656 30.327Z" fill="#2F2E41"/>
<path d="M171.534 40.5931L169.09 52.6924C167.005 54.0017 162.67 67.0295 160.976 71.5447L164.282 72.7743C167.927 67.0169 176.327 51.9009 178.256 45.4817L171.534 40.5931Z" fill="#2F2E41"/>
<path d="M179.845 5.88391C179.749 11.5067 171.385 11.5059 171.289 5.88373C171.386 0.261086 179.749 0.261965 179.845 5.88391Z" fill="#FFB8B8"/>
<path d="M176.789 8.81706C174.629 12.0564 174.687 13.1784 177.278 16.15L173.367 13.339C173.367 13.339 170.556 13.339 171.167 11.9947C171.778 10.6503 173 7.83934 173 7.83934L176.789 8.81706Z" fill="#FFB8B8"/>
<path d="M174.589 13.5835C174.589 13.5835 171.778 11.5058 170.434 12.8502C169.098 15.4091 170.442 26.6203 170.922 27.516C171.534 28.4937 171.656 27.6382 171.534 28.7382C171.412 29.8381 170.923 30.6936 171.045 30.8158C171.167 30.938 180.578 31.9158 180.578 31.9158C180.578 31.9158 179.845 28.4937 180.089 27.1494C180.333 25.805 179.845 24.4606 179.845 23.9718C179.845 23.4829 180.578 21.4052 179.845 19.8164C179.111 18.2276 176.364 14.9598 176.364 14.9598L176.178 15.1723L174.589 13.5835Z" fill="#378EE4"/>
<path d="M167.501 39.8598C167.771 40.6203 165.621 47.5406 168.356 47.5596C171.135 46.2927 169.87 40.7596 169.945 39.7376L167.501 39.8598Z" fill="#FFB8B8"/>
<path d="M170.923 12.9724C170.923 12.9724 167.745 13.0946 167.745 16.8833C167.745 20.672 166.645 27.3938 166.645 27.3938V40.4708H170.801L170.189 28.1271L172.756 20.0609C172.756 20.0609 176.056 14.9278 170.923 12.9724Z" fill="#378EE4"/>
<path d="M195.663 77.9182C195.706 77.6158 195.662 77.3073 195.535 77.0293C195.408 76.7514 195.204 76.5156 194.948 76.3498L190.358 74.0972L186.897 74.5341L186.08 77.4641C186.045 77.6728 186.053 77.8865 186.104 78.0919C186.155 78.2974 186.247 78.4904 186.374 78.6592C186.502 78.8279 186.662 78.969 186.846 79.0737C187.03 79.1784 187.233 79.2446 187.444 79.2683L193.901 79.2824C194.315 79.3289 194.73 79.2124 195.059 78.9577C195.388 78.703 195.605 78.3302 195.663 77.9182V77.9182Z" fill="#2F2E41"/>
<path d="M165.649 78.9116C165.894 78.7281 166.08 78.4784 166.187 78.1922C166.294 77.906 166.317 77.5952 166.252 77.2965L164.599 72.458L161.843 70.3198L159.194 71.8137C159.022 71.9369 158.876 72.0938 158.767 72.2749C158.657 72.456 158.586 72.6575 158.557 72.867C158.528 73.0766 158.542 73.29 158.598 73.494C158.654 73.6981 158.75 73.8886 158.882 74.054L163.439 78.6302C163.698 78.9554 164.074 79.1668 164.487 79.2193C164.9 79.2718 165.317 79.1614 165.649 78.9116V78.9116Z" fill="#2F2E41"/>
<path d="M170.688 2.4837L171.83 6.11544L181.699 5.94003C181.665 4.66938 181.236 3.44099 180.47 2.42646C179.704 1.41193 178.64 0.661938 177.428 0.281241C176.215 -0.0994571 174.913 -0.0918436 173.705 0.303018C172.497 0.69788 171.442 1.46027 170.688 2.48369L170.688 2.4837Z" fill="#2F2E41"/>
</g>
<defs>
<clipPath id="clip0">
<rect width="200" height="79.9177" fill="white"/>
</clipPath>
</defs>
</svg>
